<?xml version="1.0" encoding="UTF-8" standalone="no"?>
<svg
   xmlns:dc="http://purl.org/dc/elements/1.1/"
   xmlns:cc="http://creativecommons.org/ns#"
   xmlns:rdf="http://www.w3.org/1999/02/22-rdf-syntax-ns#"
   xmlns:svg="http://www.w3.org/2000/svg"
   xmlns="http://www.w3.org/2000/svg"
   xmlns:sodipodi="http://sodipodi.sourceforge.net/DTD/sodipodi-0.dtd"
   xmlns:inkscape="http://www.inkscape.org/namespaces/inkscape"
   viewBox="0 0 200 200"
   version="1.1"
   id="svg4"
   sodipodi:docname="blob.svg"
   inkscape:version="1.0.2-2 (e86c870879, 2021-01-15)">
  <metadata
     id="metadata10">
    <rdf:RDF>
      <cc:Work
         rdf:about="">
        <dc:format>image/svg+xml</dc:format>
        <dc:type
           rdf:resource="http://purl.org/dc/dcmitype/StillImage" />
      </cc:Work>
    </rdf:RDF>
  </metadata>
  <defs
     id="defs8" />
  <sodipodi:namedview
     pagecolor="#ffffff"
     bordercolor="#666666"
     borderopacity="1"
     objecttolerance="10"
     gridtolerance="10"
     guidetolerance="10"
     inkscape:pageopacity="0"
     inkscape:pageshadow="2"
     inkscape:window-width="1920"
     inkscape:window-height="991"
     id="namedview6"
     showgrid="false"
     inkscape:zoom="2.05"
     inkscape:cx="43.544768"
     inkscape:cy="34.666226"
     inkscape:window-x="-9"
     inkscape:window-y="-9"
     inkscape:window-maximized="1"
     inkscape:current-layer="svg4" />
  <path
     fill="#f3f6ff"
     d="m 159.30945,9.6162476 c 16.26205,6.4866924 31.6036,19.4600784 36.97315,36.2589484 5.36954,16.798871 0.92049,37.256902 0.61366,60.376144 -0.15342,23.11923 3.83539,48.73335 -5.36954,64.36794 -9.20494,15.6346 -31.75702,21.12334 -52.62154,24.44985 -21.01794,3.16018 -40.655127,4.32446 -57.224007,-2.49489 C 65.112293,185.92123 51.458309,171.28459 39.185064,155.64999 27.065235,140.0154 16.019315,123.38286 9.1156153,102.92483 2.2119153,82.633121 -0.70298024,58.848581 8.9621998,43.380314 18.780795,28.078373 41.026051,21.092704 59.742749,15.936615 78.459447,10.780526 93.494171,7.4540168 109.6028,5.4581113 125.86485,3.6285314 143.0474,3.2958805 159.30945,9.6162476 Z"
     id="path2"
     style="stroke-width:1.5974" />
</svg>
