<?xml version="1.0" encoding="UTF-8" standalone="no"?>
<svg
   xmlns:dc="http://purl.org/dc/elements/1.1/"
   xmlns:cc="http://creativecommons.org/ns#"
   xmlns:rdf="http://www.w3.org/1999/02/22-rdf-syntax-ns#"
   xmlns:svg="http://www.w3.org/2000/svg"
   xmlns="http://www.w3.org/2000/svg"
   xmlns:sodipodi="http://sodipodi.sourceforge.net/DTD/sodipodi-0.dtd"
   xmlns:inkscape="http://www.inkscape.org/namespaces/inkscape"
   viewBox="0 0 200 200"
   version="1.1"
   id="svg4"
   sodipodi:docname="blob (2).svg"
   inkscape:version="1.0.2-2 (e86c870879, 2021-01-15)">
  <metadata
     id="metadata10">
    <rdf:RDF>
      <cc:Work
         rdf:about="">
        <dc:format>image/svg+xml</dc:format>
        <dc:type
           rdf:resource="http://purl.org/dc/dcmitype/StillImage" />
      </cc:Work>
    </rdf:RDF>
  </metadata>
  <defs
     id="defs8" />
  <sodipodi:namedview
     pagecolor="#ffffff"
     bordercolor="#666666"
     borderopacity="1"
     objecttolerance="10"
     gridtolerance="10"
     guidetolerance="10"
     inkscape:pageopacity="0"
     inkscape:pageshadow="2"
     inkscape:window-width="1920"
     inkscape:window-height="991"
     id="namedview6"
     showgrid="false"
     inkscape:zoom="1.4495689"
     inkscape:cx="214.14388"
     inkscape:cy="238.99669"
     inkscape:window-x="-9"
     inkscape:window-y="-9"
     inkscape:window-maximized="1"
     inkscape:current-layer="svg4" />
  <path
     fill="#f3f6ff"
     d="m 148.04218,29.068792 c 11.36524,10.699611 20.21956,23.961099 28.54526,39.18167 8.32569,15.069873 16.38708,32.098828 19.03017,52.141758 2.77522,19.89224 0.13215,42.79844 -11.4974,55.30644 -11.49739,12.65869 -32.11342,14.76847 -50.2185,16.27546 -18.23725,1.50698 -33.96357,2.26048 -54.315278,3.46607 -20.351708,1.20559 -45.196652,2.71258 -59.733586,-9.79542 C 5.4480652,173.13677 1.3512926,146.7645 5.1837573,123.8583 8.8840678,100.95209 20.381462,81.66265 29.500084,62.071815 38.618707,42.48098 45.358559,22.588748 58.045338,12.491932 70.732117,2.2444186 89.497978,1.7923224 105.88507,5.8611882 122.27216,9.779355 136.54478,18.218484 148.04218,29.068792 Z"
     id="path2"
     style="stroke-width:1.41122" />
</svg>
